<svg xmlns="http://www.w3.org/2000/svg" viewBox="0 0 1000 620" font-family="Consolas,Menlo,'DejaVu Sans Mono',monospace">
<rect width="1000" height="620" fill="#ffffff"/>
<text x="500" y="34" text-anchor="middle" font-size="22" font-weight="bold" fill="#6A3FD0">Astron 交流群 Top 10 活跃贡献者 (Top 10 Active Contributors) - 6.29-7.12</text>
<line x1="72" y1="72" x2="72" y2="500" stroke="#6A3FD0" stroke-width="1.5"/>
<line x1="72" y1="500" x2="972" y2="500" stroke="#6A3FD0" stroke-width="1.5"/>
<text x="22" y="286" text-anchor="middle" font-size="15" fill="#6A3FD0" transform="rotate(-90 22 286)">消息数量 (Message Count)</text>
<text x="522" y="602" text-anchor="middle" font-size="15" fill="#6A3FD0">成员昵称 (Member Nickname)</text>
<text x="62" y="504" text-anchor="end" font-size="13" fill="#6A3FD0">0</text>
<text x="62" y="482.6" text-anchor="end" font-size="13" fill="#6A3FD0">20</text>
<line x1="72" y1="478.6" x2="972" y2="478.6" stroke="#6A3FD0" stroke-opacity="0.08"/>
<text x="62" y="461.2" text-anchor="end" font-size="13" fill="#6A3FD0">40</text>
<line x1="72" y1="457.2" x2="972" y2="457.2" stroke="#6A3FD0" stroke-opacity="0.08"/>
<text x="62" y="439.8" text-anchor="end" font-size="13" fill="#6A3FD0">60</text>
<line x1="72" y1="435.8" x2="972" y2="435.8" stroke="#6A3FD0" stroke-opacity="0.08"/>
<text x="62" y="418.4" text-anchor="end" font-size="13" fill="#6A3FD0">80</text>
<line x1="72" y1="414.4" x2="972" y2="414.4" stroke="#6A3FD0" stroke-opacity="0.08"/>
<text x="62" y="397" text-anchor="end" font-size="13" fill="#6A3FD0">100</text>
<line x1="72" y1="393" x2="972" y2="393" stroke="#6A3FD0" stroke-opacity="0.08"/>
<text x="62" y="375.6" text-anchor="end" font-size="13" fill="#6A3FD0">120</text>
<line x1="72" y1="371.6" x2="972" y2="371.6" stroke="#6A3FD0" stroke-opacity="0.08"/>
<text x="62" y="354.20000000000005" text-anchor="end" font-size="13" fill="#6A3FD0">140</text>
<line x1="72" y1="350.20000000000005" x2="972" y2="350.20000000000005" stroke="#6A3FD0" stroke-opacity="0.08"/>
<text x="62" y="332.79999999999995" text-anchor="end" font-size="13" fill="#6A3FD0">160</text>
<line x1="72" y1="328.79999999999995" x2="972" y2="328.79999999999995" stroke="#6A3FD0" stroke-opacity="0.08"/>
<text x="62" y="311.4" text-anchor="end" font-size="13" fill="#6A3FD0">180</text>
<line x1="72" y1="307.4" x2="972" y2="307.4" stroke="#6A3FD0" stroke-opacity="0.08"/>
<text x="62" y="290" text-anchor="end" font-size="13" fill="#6A3FD0">200</text>
<line x1="72" y1="286" x2="972" y2="286" stroke="#6A3FD0" stroke-opacity="0.08"/>
<text x="62" y="268.6" text-anchor="end" font-size="13" fill="#6A3FD0">220</text>
<line x1="72" y1="264.6" x2="972" y2="264.6" stroke="#6A3FD0" stroke-opacity="0.08"/>
<text x="62" y="247.2" text-anchor="end" font-size="13" fill="#6A3FD0">240</text>
<line x1="72" y1="243.2" x2="972" y2="243.2" stroke="#6A3FD0" stroke-opacity="0.08"/>
<text x="62" y="225.8" text-anchor="end" font-size="13" fill="#6A3FD0">260</text>
<line x1="72" y1="221.8" x2="972" y2="221.8" stroke="#6A3FD0" stroke-opacity="0.08"/>
<text x="62" y="204.40000000000003" text-anchor="end" font-size="13" fill="#6A3FD0">280</text>
<line x1="72" y1="200.40000000000003" x2="972" y2="200.40000000000003" stroke="#6A3FD0" stroke-opacity="0.08"/>
<text x="62" y="183" text-anchor="end" font-size="13" fill="#6A3FD0">300</text>
<line x1="72" y1="179" x2="972" y2="179" stroke="#6A3FD0" stroke-opacity="0.08"/>
<text x="62" y="161.59999999999997" text-anchor="end" font-size="13" fill="#6A3FD0">320</text>
<line x1="72" y1="157.59999999999997" x2="972" y2="157.59999999999997" stroke="#6A3FD0" stroke-opacity="0.08"/>
<text x="62" y="140.2" text-anchor="end" font-size="13" fill="#6A3FD0">340</text>
<line x1="72" y1="136.2" x2="972" y2="136.2" stroke="#6A3FD0" stroke-opacity="0.08"/>
<text x="62" y="118.80000000000001" text-anchor="end" font-size="13" fill="#6A3FD0">360</text>
<line x1="72" y1="114.80000000000001" x2="972" y2="114.80000000000001" stroke="#6A3FD0" stroke-opacity="0.08"/>
<text x="62" y="97.40000000000003" text-anchor="end" font-size="13" fill="#6A3FD0">380</text>
<line x1="72" y1="93.40000000000003" x2="972" y2="93.40000000000003" stroke="#6A3FD0" stroke-opacity="0.08"/>
<text x="62" y="76" text-anchor="end" font-size="13" fill="#6A3FD0">400</text>
<line x1="72" y1="72" x2="972" y2="72" stroke="#6A3FD0" stroke-opacity="0.08"/>
<rect x="90.0" y="84.8" width="54.0" height="415.2" fill="#F6A623"/>
<text x="117.0" y="76.8" text-anchor="middle" font-size="14" fill="#6A3FD0">388</text>
<text x="117.0" y="522" text-anchor="end" font-size="14" fill="#6A3FD0" transform="rotate(-40 117.0 522)">符*U</text>
<rect x="180.0" y="358.8" width="54.0" height="141.2" fill="#F6A623"/>
<text x="207.0" y="350.8" text-anchor="middle" font-size="14" fill="#6A3FD0">132</text>
<text x="207.0" y="522" text-anchor="end" font-size="14" fill="#6A3FD0" transform="rotate(-40 207.0 522)">A*菊</text>
<rect x="270.0" y="461.5" width="54.0" height="38.5" fill="#F6A623"/>
<text x="297.0" y="453.5" text-anchor="middle" font-size="14" fill="#6A3FD0">36</text>
<text x="297.0" y="522" text-anchor="end" font-size="14" fill="#6A3FD0" transform="rotate(-40 297.0 522)">黄*</text>
<rect x="360.0" y="466.8" width="54.0" height="33.2" fill="#F6A623"/>
<text x="387.0" y="458.8" text-anchor="middle" font-size="14" fill="#6A3FD0">31</text>
<text x="387.0" y="522" text-anchor="end" font-size="14" fill="#6A3FD0" transform="rotate(-40 387.0 522)">曹*兵</text>
<rect x="450.0" y="485.0" width="54.0" height="15.0" fill="#F6A623"/>
<text x="477.0" y="477.0" text-anchor="middle" font-size="14" fill="#6A3FD0">14</text>
<text x="477.0" y="522" text-anchor="end" font-size="14" fill="#6A3FD0" transform="rotate(-40 477.0 522)">卢*俊</text>
<rect x="540.0" y="486.1" width="54.0" height="13.9" fill="#F6A623"/>
<text x="567.0" y="478.1" text-anchor="middle" font-size="14" fill="#6A3FD0">13</text>
<text x="567.0" y="522" text-anchor="end" font-size="14" fill="#6A3FD0" transform="rotate(-40 567.0 522)">骑*机</text>
<rect x="630.0" y="489.3" width="54.0" height="10.7" fill="#F6A623"/>
<text x="657.0" y="481.3" text-anchor="middle" font-size="14" fill="#6A3FD0">10</text>
<text x="657.0" y="522" text-anchor="end" font-size="14" fill="#6A3FD0" transform="rotate(-40 657.0 522)">天*</text>
<rect x="720.0" y="492.5" width="54.0" height="7.5" fill="#F6A623"/>
<text x="747.0" y="484.5" text-anchor="middle" font-size="14" fill="#6A3FD0">7</text>
<text x="747.0" y="522" text-anchor="end" font-size="14" fill="#6A3FD0" transform="rotate(-40 747.0 522)">咚*当</text>
<rect x="810.0" y="493.6" width="54.0" height="6.4" fill="#F6A623"/>
<text x="837.0" y="485.6" text-anchor="middle" font-size="14" fill="#6A3FD0">6</text>
<text x="837.0" y="522" text-anchor="end" font-size="14" fill="#6A3FD0" transform="rotate(-40 837.0 522)">？*</text>
<rect x="900.0" y="494.6" width="54.0" height="5.4" fill="#F6A623"/>
<text x="927.0" y="486.6" text-anchor="middle" font-size="14" fill="#6A3FD0">5</text>
<text x="927.0" y="522" text-anchor="end" font-size="14" fill="#6A3FD0" transform="rotate(-40 927.0 522)">E*n</text>
</svg>
